<svg width="192" height="192" viewBox="0 0 192 192" fill="none" xmlns="http://www.w3.org/2000/svg">
<path d="M182 96C182 107.294 179.776 118.477 175.454 128.911C171.132 139.345 164.797 148.825 156.811 156.811C148.825 164.797 139.345 171.132 128.911 175.454C118.477 179.776 107.294 182 96 182C84.7063 182 73.5232 179.776 63.0892 175.454C52.6552 171.132 43.1747 164.797 35.1888 156.811C27.203 148.825 20.8683 139.345 16.5464 128.911C12.2245 118.477 10 107.294 10 96L27.2 96C27.2 105.035 28.9796 113.981 32.4371 122.329C35.8946 130.676 40.9624 138.26 47.351 144.649C53.7397 151.038 61.3242 156.105 69.6714 159.563C78.0186 163.02 86.9651 164.8 96 164.8C105.035 164.8 113.981 163.02 122.329 159.563C130.676 156.105 138.26 151.038 144.649 144.649C151.038 138.26 156.105 130.676 159.563 122.329C163.02 113.981 164.8 105.035 164.8 96H182Z" fill="white"/>
</svg>
