<svg width="192" height="192" viewBox="0 0 192 192" fill="none" xmlns="http://www.w3.org/2000/svg">
<path d="M182 96C182 113.009 176.956 129.636 167.506 143.779C158.057 157.922 144.625 168.945 128.911 175.454C113.196 181.963 95.9046 183.666 79.2222 180.348C62.5399 177.029 47.2161 168.838 35.1888 156.811C23.1615 144.784 14.9708 129.46 11.6525 112.778C8.33414 96.0954 10.0372 78.8037 16.5464 63.0892C23.0555 47.3748 34.0783 33.9434 48.221 24.4936C62.3636 15.0438 78.9908 10 96 10L96 27.2C82.3926 27.2 69.0909 31.235 57.7768 38.7949C46.4627 46.3547 37.6444 57.0998 32.4371 69.6714C27.2298 82.2429 25.8673 96.0763 28.522 109.422C31.1766 122.768 37.7292 135.027 47.3511 144.649C56.9729 154.271 69.2319 160.823 82.5778 163.478C95.9237 166.133 109.757 164.77 122.329 159.563C134.9 154.356 145.645 145.537 153.205 134.223C160.765 122.909 164.8 109.607 164.8 96H182Z" fill="white"/>
</svg>
