<?xml version="1.0" encoding="UTF-8"?>
<svg id="_레이어_2" data-name="레이어 2" xmlns="http://www.w3.org/2000/svg" xmlns:xlink="http://www.w3.org/1999/xlink" viewBox="0 0 650.77 92.78">
  <defs>
    <style>
      .cls-1 {
        fill: #3e3a39;
      }

      .cls-2 {
        fill: #231815;
      }

      .cls-3 {
        fill: #9bc83a;
      }

      .cls-4 {
        fill: #f5ab18;
      }

      .cls-5 {
        fill: url(#linear-gradient);
      }

      .cls-6 {
        fill: #00e5ff;
      }
    </style>
    <linearGradient id="linear-gradient" x1="18.97" y1="14.11" x2="17.39" y2="98.62" gradientUnits="userSpaceOnUse">
      <stop offset="0" stop-color="#00aeeb"/>
      <stop offset="1" stop-color="#004da0"/>
    </linearGradient>
  </defs>
  <g id="_레이어_1-2" data-name="레이어 1">
    <g>
      <g>
        <path class="cls-2" d="M176.12,46.41h-5.41v-3.65h-8.32v-4.44h8.32v-3.61h-7.91c-2.28,6.07-7.57,10.26-15.86,12.57l-2.13-4.3c4.16-1.11,7.34-2.67,9.55-4.69,2.2-2.02,3.49-4.37,3.86-7.05h-11.37v-4.39h17.25c0,1.14-.08,2.3-.23,3.47h6.84v-6.06h5.41v22.14ZM170.29,47.85c1.91.65,3.4,1.56,4.46,2.75,1.06,1.19,1.59,2.57,1.59,4.14s-.52,3-1.57,4.18c-1.05,1.19-2.54,2.1-4.46,2.75-1.93.65-4.15.97-6.68.97s-4.8-.32-6.73-.97c-1.93-.65-3.42-1.56-4.48-2.75-1.06-1.19-1.59-2.58-1.59-4.18s.53-2.95,1.59-4.14,2.56-2.1,4.48-2.75c1.93-.65,4.17-.97,6.73-.97s4.75.32,6.66.97ZM158.11,52.1c-1.28.59-1.92,1.46-1.92,2.64s.64,2.05,1.92,2.63c1.28.59,3.12.88,5.52.88s4.11-.3,5.41-.9,1.94-1.47,1.94-2.61-.64-2.05-1.92-2.64c-1.28-.59-3.09-.88-5.43-.88s-4.25.29-5.52.88Z"/>
        <path class="cls-2" d="M195.97,36.94c1.4,1.97,3.5,3.41,6.31,4.3l-2.77,4.35c-3.88-1.33-6.66-3.75-8.32-7.26-1.76,4.16-4.69,6.93-8.78,8.32l-2.82-4.3c2.99-1.02,5.2-2.66,6.63-4.92,1.43-2.27,2.15-4.83,2.15-7.7v-3.42h5.5v4.02c0,2.44.7,4.64,2.1,6.61ZM206.84,49.86c2.26,1.34,3.4,3.17,3.4,5.48s-1.13,4.18-3.4,5.5c-2.27,1.32-5.36,1.99-9.27,1.99s-7.12-.66-9.43-1.99c-2.31-1.33-3.47-3.16-3.47-5.5s1.16-4.14,3.47-5.48c2.31-1.34,5.46-2.01,9.43-2.01s7,.67,9.27,2.01ZM192.04,52.96c-1.28.54-1.92,1.33-1.92,2.38,0,2.1,2.48,3.14,7.44,3.14s7.3-1.05,7.3-3.14c0-1.05-.62-1.84-1.85-2.38-1.23-.54-3.05-.81-5.46-.81s-4.25.27-5.52.81ZM209.87,33.19h4.95v4.58h-4.95v9.29h-5.46v-22.84h5.46v8.97Z"/>
        <path class="cls-2" d="M249.86,46.92h-14.42v3.28h10.36v12.62h-5.5v-8.18h-20.76v-4.44h10.5v-3.28h-14.33v-4.3h34.17v4.3ZM225.45,28.66h14.7v-3.51h5.36v14.98h-25.47v-14.98h5.41v3.51ZM240.15,35.73v-3.01h-14.7v3.01h14.7Z"/>
        <path class="cls-2" d="M281.85,45.81h-10.77v8.14h14.47v4.53h-34.26v-4.53h14.38v-8.14h-10.36v-18.86h26.26v4.39h-20.8v10.08h21.08v4.39Z"/>
        <path class="cls-2" d="M321.05,58.16h-34.17v-4.48h7.17v-12.11h5.46v12.11h3.88v-12.11h5.41v12.11h12.25v4.48ZM318.05,31.25c0,3.24-.08,6.15-.23,8.74s-.54,5.62-1.16,9.11l-5.36-.55c.58-3.11.96-5.92,1.11-8.44.15-2.51.23-5.23.23-8.16h-22.38v-4.44h27.79v3.74Z"/>
        <path class="cls-2" d="M356.65,46.55h-8.14v3.56h4.07v12.71h-5.5v-8.37h-20.76v-4.35h4.21v-3.56h-8.04v-4.3h34.17v4.3ZM346.78,25.89c2.05.62,3.63,1.5,4.74,2.64,1.11,1.14,1.66,2.48,1.66,4.02s-.55,2.94-1.66,4.09-2.69,2.04-4.74,2.66c-2.05.62-4.45.92-7.19.92s-5.19-.31-7.24-.92c-2.05-.62-3.64-1.5-4.76-2.66s-1.69-2.52-1.69-4.09.56-2.88,1.69-4.02c1.12-1.14,2.72-2.02,4.79-2.64,2.06-.62,4.47-.92,7.21-.92s5.14.31,7.19.92ZM333.6,30.12c-1.4.57-2.1,1.38-2.1,2.43,0,1.11.7,1.95,2.1,2.52,1.4.57,3.4.85,5.99.85s4.58-.28,5.96-.85,2.08-1.41,2.08-2.52c0-1.05-.7-1.86-2.1-2.43-1.4-.57-3.38-.86-5.94-.86s-4.58.29-5.99.86ZM343.1,50.11v-3.56h-7.17v3.56h7.17Z"/>
        <path class="cls-2" d="M379.39,32.59h-7.44c.06,2.1.84,4.01,2.33,5.73,1.49,1.73,3.66,2.96,6.5,3.7l-2.5,4.25c-4.13-1.11-7.1-3.3-8.92-6.56-.83,1.79-2,3.34-3.51,4.65s-3.34,2.27-5.5,2.89l-2.54-4.3c2.83-.83,4.99-2.19,6.47-4.07,1.48-1.88,2.25-3.98,2.31-6.29h-7.49v-4.35h7.49v-4.11h5.41v4.11h7.4v4.35ZM386.33,50.09c2.28,1.25,3.42,3.03,3.42,5.34s-1.14,4.16-3.42,5.46c-2.28,1.29-5.44,1.94-9.48,1.94s-7.15-.66-9.43-1.96c-2.28-1.31-3.42-3.12-3.42-5.43s1.14-4.05,3.42-5.32c2.28-1.26,5.42-1.9,9.43-1.9s7.2.62,9.48,1.87ZM369.32,55.43c0,1.02.65,1.8,1.94,2.36,1.29.55,3.16.83,5.59.83s4.38-.28,5.64-.83c1.26-.56,1.9-1.34,1.9-2.36,0-2-2.51-3-7.54-3s-7.54,1-7.54,3ZM389.7,47.52h-5.46v-8.55h-5.92v-4.44h5.92v-10.31h5.46v23.3Z"/>
        <path class="cls-2" d="M418.55,27.97c1.57.83,2.81,2,3.72,3.49.91,1.5,1.36,3.17,1.36,5.02s-.46,3.56-1.36,5.04-2.15,2.64-3.72,3.47c-1.57.83-3.31,1.25-5.22,1.25s-3.65-.42-5.2-1.25c-1.56-.83-2.79-1.99-3.7-3.47-.91-1.48-1.36-3.16-1.36-5.04s.45-3.52,1.36-5.02c.91-1.49,2.15-2.66,3.72-3.49,1.57-.83,3.3-1.25,5.18-1.25s3.65.42,5.22,1.25ZM409.79,32.87c-.94.89-1.41,2.1-1.41,3.61s.47,2.75,1.41,3.63,2.12,1.32,3.54,1.32,2.59-.44,3.51-1.32,1.39-2.09,1.39-3.63-.46-2.71-1.39-3.61c-.92-.89-2.1-1.34-3.51-1.34s-2.6.45-3.54,1.34ZM434.87,62.13h-26.12v-12.94h5.46v8.55h20.67v4.39ZM433.9,51.96h-5.46v-27.69h5.46v27.69Z"/>
        <path class="cls-2" d="M472.22,45.9h-33.98v-4.44h12.58v-6.75h5.41v6.75h16v4.44ZM464.76,50.2c2.39,1.29,3.58,3.08,3.58,5.36s-1.2,4.02-3.61,5.32c-2.4,1.29-5.66,1.94-9.75,1.94s-7.3-.65-9.71-1.94-3.61-3.07-3.61-5.32,1.19-4.07,3.58-5.36,5.63-1.94,9.73-1.94,7.39.65,9.78,1.94ZM468.25,29.08c0,2.07-.06,3.86-.18,5.39-.12,1.53-.43,3.18-.92,4.97l-5.36-.55c.37-1.57.62-3.02.76-4.35.14-1.32.21-2.73.21-4.21h-20.76v-4.35h26.26v3.1ZM449.11,53.19c-1.36.54-2.03,1.33-2.03,2.38,0,.99.69,1.74,2.06,2.27,1.37.52,3.32.79,5.85.79s4.57-.26,5.94-.79c1.37-.52,2.06-1.28,2.06-2.27,0-1.05-.69-1.84-2.06-2.38-1.37-.54-3.35-.81-5.94-.81s-4.51.27-5.87.81Z"/>
        <path class="cls-2" d="M490.72,43.99c1.6,2.91,3.9,5,6.89,6.26l-2.87,4.39c-4.22-1.85-7.26-5.3-9.11-10.36-.86,2.62-2.07,4.9-3.61,6.84-1.54,1.94-3.39,3.42-5.55,4.44l-3.05-4.39c2-.92,3.71-2.26,5.11-4,1.4-1.74,2.45-3.7,3.14-5.87s1.04-4.38,1.04-6.63v-2.22h-7.81v-4.48h21.17v4.48h-7.77v2.22c0,3.3.8,6.4,2.4,9.32ZM505.05,62.83h-5.46V24.22h5.46v38.6Z"/>
        <path class="cls-2" d="M543.6,45.95h-34.3v-4.48h34.3v4.48ZM535.93,50.25c2.31,1.26,3.47,3.02,3.47,5.27s-1.16,4.01-3.47,5.27c-2.31,1.26-5.5,1.9-9.57,1.9s-7.32-.63-9.66-1.9c-2.34-1.26-3.51-3.02-3.51-5.27s1.17-4.01,3.51-5.27c2.34-1.26,5.56-1.9,9.66-1.9s7.26.63,9.57,1.9ZM539.72,38.23h-26.12v-13.36h5.41v8.92h20.71v4.44ZM520.6,53.33c-1.25.45-1.87,1.18-1.87,2.2,0,1.97,2.54,2.96,7.63,2.96s7.58-.99,7.58-2.96c0-.99-.62-1.71-1.87-2.17-1.25-.46-3.15-.69-5.71-.69s-4.51.22-5.76.67Z"/>
        <path class="cls-2" d="M579.06,58.16h-34.17v-4.48h7.17v-12.11h5.46v12.11h3.88v-12.11h5.41v12.11h12.25v4.48ZM576.06,31.25c0,3.24-.08,6.15-.23,8.74s-.54,5.62-1.16,9.11l-5.36-.55c.58-3.11.96-5.92,1.11-8.44.15-2.51.23-5.23.23-8.16h-22.38v-4.44h27.79v3.74Z"/>
        <path class="cls-2" d="M614.66,46.55h-8.14v3.56h4.07v12.71h-5.5v-8.37h-20.76v-4.35h4.21v-3.56h-8.04v-4.3h34.17v4.3ZM604.79,25.89c2.05.62,3.63,1.5,4.74,2.64,1.11,1.14,1.66,2.48,1.66,4.02s-.55,2.94-1.66,4.09-2.69,2.04-4.74,2.66c-2.05.62-4.45.92-7.19.92s-5.19-.31-7.24-.92c-2.05-.62-3.64-1.5-4.76-2.66s-1.69-2.52-1.69-4.09.56-2.88,1.69-4.02c1.12-1.14,2.72-2.02,4.79-2.64,2.06-.62,4.47-.92,7.21-.92s5.14.31,7.19.92ZM591.61,30.12c-1.4.57-2.1,1.38-2.1,2.43,0,1.11.7,1.95,2.1,2.52,1.4.57,3.4.85,5.99.85s4.58-.28,5.96-.85,2.08-1.41,2.08-2.52c0-1.05-.7-1.86-2.1-2.43-1.4-.57-3.38-.86-5.94-.86s-4.58.29-5.99.86ZM601.11,50.11v-3.56h-7.17v3.56h7.17Z"/>
        <path class="cls-2" d="M627.88,43.32c4.07-.22,7.72-.55,10.96-1.02l.23,3.98c-5.76,1.11-13.42,1.66-22.98,1.66l-.46-4.39,6.8-.05v-7.49h5.46v7.3ZM637.17,29.45c0,1.97-.05,3.82-.16,5.55-.11,1.73-.36,3.64-.76,5.73l-5.27-.51c.49-2.77.77-5.67.83-8.69h-14.01v-4.48h19.37v2.4ZM647.48,62.13h-26.4v-11.6h5.46v7.21h20.94v4.39ZM646.33,35.97h4.44v4.58h-4.44v12.53h-5.55v-28.85h5.55v11.74Z"/>
      </g>
      <g>
        <path class="cls-2" d="M148.35,87.09c-.99-.56-1.77-1.33-2.34-2.31-.57-.98-.85-2.06-.85-3.26s.28-2.3.85-3.28c.57-.98,1.34-1.75,2.33-2.3.99-.56,2.08-.84,3.29-.84,1.04,0,1.99.21,2.84.62.85.41,1.56.99,2.12,1.72l-1.98,1.49c-.38-.5-.81-.87-1.3-1.1-.49-.23-1.05-.35-1.68-.35-.76,0-1.43.17-2.03.51-.59.34-1.06.81-1.39,1.42-.33.61-.5,1.31-.5,2.09s.17,1.47.51,2.08c.34.61.81,1.09,1.4,1.43.6.34,1.28.52,2.04.52.69,0,1.29-.14,1.8-.42.51-.28.91-.67,1.19-1.18.28-.51.42-1.09.42-1.75l.7.85h-3.87v-2.1h5.54c.08.45.12.87.12,1.25,0,1.11-.25,2.11-.76,2.97-.51.87-1.21,1.54-2.11,2.03s-1.91.73-3.04.73c-1.21,0-2.31-.28-3.31-.84Z"/>
        <path class="cls-2" d="M158.52,78.89h2.56l3.34,8.8h-2.26l-3.63-8.8ZM162.15,87.69l1.15-2.74h.27l-.14.08,2.24-6.14h2.54l-4.98,12.49h-2.56l1.47-3.69Z"/>
        <path class="cls-2" d="M171,87.34c-.72-.4-1.29-.95-1.69-1.66-.4-.71-.61-1.5-.61-2.38s.2-1.69.6-2.4c.4-.71.95-1.26,1.65-1.65.7-.4,1.49-.59,2.37-.59s1.65.2,2.33.59c.68.4,1.21.95,1.59,1.65.38.71.57,1.5.57,2.4,0,.24-.02.5-.06.78h-7.63v-1.85h5.35l-.13.26c0-.35-.08-.67-.25-.95-.17-.28-.41-.5-.71-.67-.31-.16-.66-.24-1.06-.24-.42,0-.8.1-1.14.29-.34.19-.6.46-.79.8-.19.34-.29.74-.29,1.19v.69c0,.46.1.87.31,1.22.2.36.49.63.85.83.36.2.77.3,1.22.3s.84-.1,1.16-.29.56-.46.73-.8l2.11.78c-.36.72-.88,1.28-1.57,1.69s-1.5.61-2.44.61-1.76-.2-2.48-.6Z"/>
        <path class="cls-2" d="M181.27,87.33c-.71-.4-1.26-.96-1.67-1.67-.41-.71-.61-1.5-.61-2.36s.2-1.67.61-2.37c.41-.71.96-1.26,1.67-1.66.71-.4,1.5-.61,2.36-.61s1.67.2,2.37.61,1.26.96,1.66,1.66c.4.71.61,1.5.61,2.37s-.2,1.65-.61,2.36c-.4.71-.96,1.27-1.66,1.67s-1.5.61-2.37.61-1.65-.2-2.36-.61ZM184.83,85.4c.35-.21.62-.49.82-.86.19-.37.29-.78.29-1.25s-.1-.89-.29-1.26-.47-.65-.82-.86-.75-.31-1.19-.31-.84.1-1.19.31c-.35.2-.62.49-.82.86s-.3.79-.3,1.26.1.88.3,1.25c.2.37.47.65.82.86.35.21.74.31,1.19.31s.84-.1,1.19-.31Z"/>
        <path class="cls-2" d="M189.89,78.89h2.42v8.8h-2.42v-8.8ZM195.4,81.39c-.29-.35-.69-.52-1.21-.52-.35,0-.67.09-.96.26s-.51.44-.67.8c-.17.36-.25.81-.25,1.36l-.27-1.64v-1.46h.55l-.55,1.46c0-.59.13-1.11.39-1.57s.62-.8,1.08-1.06c.46-.25.99-.38,1.58-.38.66,0,1.23.15,1.7.46.47.31.84.75,1.09,1.32.25.57.38,1.25.38,2.04v5.22h-2.42v-4.81c0-.64-.14-1.14-.43-1.49Z"/>
        <path class="cls-2" d="M206.88,85.66c-.26.67-.63,1.17-1.11,1.5-.49.33-1.08.49-1.78.49-.78,0-1.49-.2-2.12-.59-.63-.39-1.12-.93-1.47-1.62-.35-.69-.53-1.45-.53-2.29s.18-1.61.53-2.3c.35-.69.84-1.22,1.47-1.62.62-.39,1.33-.59,2.12-.59.7,0,1.29.17,1.78.49.49.33.86.83,1.11,1.49.26.67.38,1.5.38,2.52l-.87-3.11h1.09v6.23h-1.09l.87-3.11c0,1-.13,1.84-.38,2.51ZM201.96,91.12c-.67-.33-1.32-.84-1.94-1.53l1.57-1.43c.39.47.79.81,1.21,1.02.41.21.87.32,1.38.32.79,0,1.4-.23,1.83-.7.43-.47.64-1.13.64-1.99v-1.18l.39-2.34-.39-2.63v-1.77h2.42v7.92c0,.99-.19,1.85-.58,2.57-.39.72-.94,1.28-1.66,1.66-.72.39-1.57.58-2.55.58-.88,0-1.65-.17-2.32-.5ZM205.67,85.21c.34-.2.6-.48.79-.84.19-.36.28-.76.28-1.21s-.09-.87-.28-1.22c-.19-.35-.45-.63-.79-.83s-.72-.3-1.14-.3-.81.1-1.14.3c-.33.2-.59.48-.78.84s-.29.77-.29,1.22.1.85.29,1.21c.19.36.45.64.78.84.33.2.71.3,1.14.3s.81-.1,1.14-.3Z"/>
        <path class="cls-2" d="M212.25,87.57c-.61-.24-1.13-.6-1.55-1.06l1.35-1.48c.36.33.72.57,1.06.71.34.14.73.21,1.16.21s.79-.08,1.04-.23c.24-.15.36-.36.36-.63,0-.15-.04-.28-.12-.39-.08-.11-.22-.2-.42-.28-.2-.08-.48-.16-.85-.24l-.44-.11c-.95-.23-1.66-.56-2.14-.99-.48-.43-.72-.97-.72-1.61,0-.53.16-1.02.47-1.45s.74-.77,1.28-1.01c.54-.24,1.14-.36,1.81-.36.62,0,1.21.11,1.78.34.57.23,1.08.55,1.54.98l-1.33,1.5c-.31-.28-.62-.5-.94-.64-.32-.14-.67-.21-1.05-.21s-.71.07-.94.21c-.23.14-.35.33-.35.57,0,.11.04.21.11.29s.19.15.35.22c.16.07.38.14.67.21l.46.12c1.07.25,1.86.6,2.37,1.05.5.45.75,1.03.75,1.73,0,.56-.16,1.06-.46,1.51-.31.44-.75.79-1.31,1.03-.56.25-1.21.37-1.94.37s-1.38-.12-1.99-.37Z"/>
        <path class="cls-2" d="M226.12,85.88c-.26.69-.63,1.2-1.11,1.54s-1.08.51-1.78.51c-.78,0-1.49-.2-2.12-.61-.63-.4-1.12-.96-1.47-1.67s-.53-1.5-.53-2.37.18-1.67.53-2.37.84-1.26,1.47-1.66c.62-.4,1.33-.61,2.12-.61.7,0,1.29.17,1.78.51s.86.85,1.11,1.54c.26.69.38,1.55.38,2.59l-.87-3.2h1.07v6.4h-1.07l.87-3.2c0,1.04-.13,1.9-.38,2.58ZM224.91,85.4c.34-.21.6-.49.79-.86.19-.37.28-.78.28-1.25s-.09-.89-.28-1.26-.45-.65-.79-.86-.72-.31-1.14-.31-.81.1-1.14.31c-.33.2-.59.49-.78.86s-.29.79-.29,1.26.1.88.29,1.25.45.66.78.87c.33.21.71.31,1.14.31s.81-.1,1.14-.31ZM225.91,87.69v-1.77l.38-2.63-.38-2.34v-2.06h2.42v8.8h-2.42Z"/>
        <path class="cls-2" d="M230.4,78.89h2.42v8.8h-2.42v-8.8ZM235.9,81.39c-.29-.35-.69-.52-1.21-.52-.35,0-.67.09-.96.26s-.51.44-.67.8c-.17.36-.25.81-.25,1.36l-.27-1.64v-1.46h.55l-.55,1.46c0-.59.13-1.11.39-1.57s.62-.8,1.08-1.06c.46-.25.99-.38,1.58-.38.66,0,1.23.15,1.7.46.47.31.84.75,1.09,1.32.25.57.38,1.25.38,2.04v5.22h-2.42v-4.81c0-.64-.14-1.14-.43-1.49Z"/>
        <path class="cls-2" d="M247.38,85.66c-.26.67-.63,1.17-1.11,1.5-.49.33-1.08.49-1.78.49-.78,0-1.49-.2-2.12-.59-.63-.39-1.12-.93-1.47-1.62-.35-.69-.53-1.45-.53-2.29s.18-1.61.53-2.3c.35-.69.84-1.22,1.47-1.62.62-.39,1.33-.59,2.12-.59.7,0,1.29.17,1.78.49.49.33.86.83,1.11,1.49.26.67.38,1.5.38,2.52l-.87-3.11h1.09v6.23h-1.09l.87-3.11c0,1-.13,1.84-.38,2.51ZM242.47,91.12c-.67-.33-1.32-.84-1.94-1.53l1.57-1.43c.39.47.79.81,1.21,1.02.41.21.87.32,1.38.32.79,0,1.4-.23,1.83-.7.43-.47.64-1.13.64-1.99v-1.18l.39-2.34-.39-2.63v-1.77h2.42v7.92c0,.99-.19,1.85-.58,2.57-.39.72-.94,1.28-1.66,1.66-.72.39-1.57.58-2.55.58-.88,0-1.65-.17-2.32-.5ZM246.17,85.21c.34-.2.6-.48.79-.84.19-.36.28-.76.28-1.21s-.09-.87-.28-1.22c-.19-.35-.45-.63-.79-.83s-.72-.3-1.14-.3-.81.1-1.14.3c-.33.2-.59.48-.78.84s-.29.77-.29,1.22.1.85.29,1.21c.19.36.45.64.78.84.33.2.71.3,1.14.3s.81-.1,1.14-.3Z"/>
        <path class="cls-2" d="M251.65,75.34h2.42v5.61l-.38,2.34.38,2.63v1.77h-2.42v-12.35ZM254.34,86.49h-1.07v-6.4h1.07l-.87,3.2c0-1.04.13-1.9.38-2.59.26-.69.63-1.21,1.12-1.54s1.08-.51,1.77-.51c.8,0,1.51.2,2.13.61.62.4,1.11.96,1.46,1.66s.52,1.5.52,2.37-.17,1.66-.52,2.37-.84,1.26-1.46,1.67c-.62.4-1.33.61-2.13.61-.69,0-1.29-.17-1.77-.51s-.86-.86-1.12-1.54c-.26-.69-.38-1.55-.38-2.58l.87,3.2ZM257.36,85.4c.34-.21.6-.5.79-.87s.28-.79.28-1.25-.09-.89-.28-1.26-.45-.65-.79-.86c-.34-.2-.72-.31-1.15-.31s-.8.1-1.13.31c-.34.2-.6.49-.79.86-.19.37-.29.79-.29,1.26s.09.88.29,1.25c.19.37.45.65.79.86.33.21.71.31,1.13.31s.81-.1,1.15-.31Z"/>
        <path class="cls-2" d="M265.33,85.19c.29.35.69.52,1.21.52.35,0,.67-.09.96-.26.29-.17.51-.44.67-.8.16-.36.25-.81.25-1.36l.27,1.64v1.46h-.55l.55-1.46c0,.59-.13,1.11-.39,1.57s-.62.81-1.08,1.06-.99.38-1.58.38c-.66,0-1.23-.15-1.7-.46s-.84-.75-1.09-1.32c-.25-.57-.38-1.25-.38-2.04v-5.22h2.42v4.81c0,.64.14,1.14.43,1.49ZM270.84,87.69h-2.42v-8.8h2.42v8.8Z"/>
        <path class="cls-2" d="M272.91,75.34h2.42v12.35h-2.42v-12.35ZM274.92,83.16l.78.61h-.82v-1.28h.82l-.78.6,3.31-4.2h2.86l-3.46,4.21,3.55,4.59h-2.79l-3.47-4.54Z"/>
        <path class="cls-2" d="M287.18,84.15h-5.43v-2.13h5.43v2.13Z"/>
        <path class="cls-2" d="M296.28,83.29c0,1.04-.13,1.9-.38,2.58s-.63,1.2-1.12,1.54-1.08.51-1.77.51c-.8,0-1.51-.2-2.13-.61-.62-.4-1.11-.96-1.46-1.67s-.52-1.5-.52-2.37.17-1.67.52-2.37.84-1.26,1.46-1.66c.62-.4,1.33-.61,2.13-.61.69,0,1.29.17,1.77.51s.86.85,1.12,1.54c.26.69.38,1.55.38,2.59l-.87-3.2h1.07v6.4h-1.07l.87-3.2ZM293.54,85.72c.42,0,.8-.1,1.13-.31.34-.21.6-.49.79-.86.19-.37.29-.78.29-1.25s-.09-.89-.29-1.26c-.19-.37-.45-.65-.79-.86-.33-.2-.71-.31-1.13-.31s-.81.1-1.15.31c-.34.2-.6.49-.79.86s-.28.79-.28,1.26.09.88.28,1.25.45.66.79.87c.34.21.72.31,1.15.31ZM298.11,87.69h-2.42v-1.77l.38-2.63-.38-2.34v-5.61h2.42v12.35Z"/>
        <path class="cls-2" d="M302.01,87.33c-.71-.4-1.26-.96-1.67-1.67-.41-.71-.61-1.5-.61-2.36s.2-1.67.61-2.37c.41-.71.96-1.26,1.67-1.66.71-.4,1.5-.61,2.36-.61s1.67.2,2.37.61,1.26.96,1.66,1.66c.4.71.61,1.5.61,2.37s-.2,1.65-.61,2.36c-.4.71-.96,1.27-1.66,1.67s-1.5.61-2.37.61-1.65-.2-2.36-.61ZM305.56,85.4c.35-.21.62-.49.82-.86.19-.37.29-.78.29-1.25s-.1-.89-.29-1.26-.47-.65-.82-.86-.75-.31-1.19-.31-.84.1-1.19.31c-.35.2-.62.49-.82.86s-.3.79-.3,1.26.1.88.3,1.25c.2.37.47.65.82.86.35.21.74.31,1.19.31s.84-.1,1.19-.31Z"/>
        <path class="cls-2" d="M317.66,87.09c-.99-.56-1.76-1.33-2.33-2.31-.57-.98-.85-2.07-.85-3.27s.28-2.3.85-3.28c.57-.98,1.34-1.75,2.33-2.3.99-.56,2.08-.84,3.29-.84s2.32.28,3.3.84c.98.56,1.76,1.33,2.32,2.3.56.98.84,2.07.84,3.28s-.28,2.29-.84,3.27c-.56.98-1.34,1.75-2.32,2.31-.98.56-2.08.84-3.3.84s-2.3-.28-3.29-.84ZM322.98,85.03c.59-.34,1.06-.82,1.39-1.43s.5-1.3.5-2.08-.17-1.47-.5-2.09c-.34-.61-.8-1.09-1.39-1.43-.59-.34-1.27-.51-2.03-.51s-1.43.17-2.03.51c-.59.34-1.06.82-1.39,1.43-.33.61-.5,1.31-.5,2.09s.17,1.47.5,2.08c.34.61.8,1.09,1.39,1.43.59.34,1.27.52,2.03.52s1.43-.17,2.03-.52Z"/>
        <path class="cls-2" d="M328.66,78.89h6.11v1.89h-6.11v-1.89ZM334.78,75.03v2.18c-.35-.1-.69-.16-1.01-.16-.42,0-.72.1-.92.29-.2.19-.29.51-.29.94v9.42h-2.42v-9.58c0-.72.12-1.33.36-1.83.24-.5.59-.89,1.06-1.15s1.03-.39,1.69-.39c.55,0,1.06.09,1.54.28Z"/>
        <path class="cls-2" d="M336.05,78.89h6.11v1.89h-6.11v-1.89ZM342.17,75.03v2.18c-.35-.1-.69-.16-1.01-.16-.42,0-.72.1-.92.29-.2.19-.29.51-.29.94v9.42h-2.42v-9.58c0-.72.12-1.33.36-1.83.24-.5.59-.89,1.06-1.15s1.03-.39,1.69-.39c.55,0,1.06.09,1.54.28Z"/>
        <path class="cls-2" d="M344.36,77.41c-.22-.12-.39-.29-.52-.51-.13-.21-.19-.45-.19-.72s.06-.51.19-.73c.13-.22.3-.39.52-.51.22-.12.46-.18.73-.18s.52.06.74.18c.22.12.39.29.52.51.12.22.18.46.18.73s-.06.51-.18.72c-.12.21-.29.38-.52.51-.22.12-.47.19-.74.19s-.51-.06-.73-.19ZM343.88,78.89h2.42v8.8h-2.42v-8.8Z"/>
        <path class="cls-2" d="M350.24,87.32c-.72-.41-1.28-.96-1.69-1.67s-.62-1.49-.62-2.36.21-1.66.62-2.37.98-1.26,1.69-1.67,1.51-.61,2.38-.61c.62,0,1.2.1,1.74.31.54.2,1.01.49,1.41.87.4.38.72.82.95,1.33l-2.15.84c-.18-.36-.43-.64-.77-.83-.34-.2-.73-.29-1.18-.29s-.86.1-1.22.31-.63.49-.84.86c-.2.37-.3.79-.3,1.26s.1.88.3,1.25c.2.37.48.65.84.86s.76.31,1.22.31.84-.1,1.18-.3c.33-.2.59-.47.77-.83l2.15.84c-.23.5-.54.94-.95,1.32-.4.38-.88.67-1.41.88-.54.21-1.12.31-1.74.31-.87,0-1.66-.2-2.38-.61Z"/>
        <path class="cls-2" d="M360.18,87.34c-.72-.4-1.29-.95-1.69-1.66-.4-.71-.61-1.5-.61-2.38s.2-1.69.6-2.4c.4-.71.95-1.26,1.65-1.65.7-.4,1.49-.59,2.37-.59s1.65.2,2.33.59c.68.4,1.21.95,1.59,1.65.38.71.57,1.5.57,2.4,0,.24-.02.5-.06.78h-7.63v-1.85h5.35l-.13.26c0-.35-.08-.67-.25-.95-.17-.28-.41-.5-.71-.67-.31-.16-.66-.24-1.06-.24-.42,0-.8.1-1.14.29-.34.19-.6.46-.79.8-.19.34-.29.74-.29,1.19v.69c0,.46.1.87.31,1.22.2.36.49.63.85.83.36.2.77.3,1.22.3s.84-.1,1.16-.29.56-.46.73-.8l2.11.78c-.36.72-.88,1.28-1.57,1.69s-1.5.61-2.44.61-1.76-.2-2.48-.6Z"/>
        <path class="cls-2" d="M374.69,87.33c-.71-.4-1.26-.96-1.67-1.67-.41-.71-.61-1.5-.61-2.36s.2-1.67.61-2.37c.41-.71.96-1.26,1.67-1.66.71-.4,1.5-.61,2.36-.61s1.67.2,2.37.61,1.26.96,1.66,1.66c.4.71.61,1.5.61,2.37s-.2,1.65-.61,2.36c-.4.71-.96,1.27-1.66,1.67s-1.5.61-2.37.61-1.65-.2-2.36-.61ZM378.24,85.4c.35-.21.62-.49.82-.86.19-.37.29-.78.29-1.25s-.1-.89-.29-1.26-.47-.65-.82-.86-.75-.31-1.19-.31-.84.1-1.19.31c-.35.2-.62.49-.82.86s-.3.79-.3,1.26.1.88.3,1.25c.2.37.47.65.82.86.35.21.74.31,1.19.31s.84-.1,1.19-.31Z"/>
        <path class="cls-2" d="M382.53,78.89h6.11v1.89h-6.11v-1.89ZM388.64,75.03v2.18c-.35-.1-.69-.16-1.01-.16-.42,0-.72.1-.92.29-.2.19-.29.51-.29.94v9.42h-2.42v-9.58c0-.72.12-1.33.36-1.83.24-.5.59-.89,1.06-1.15s1.03-.39,1.69-.39c.55,0,1.06.09,1.54.28Z"/>
        <path class="cls-2" d="M394.66,75.34h2.53v12.35h-2.53v-12.35ZM397.15,75.34h5.48v2.37h-5.48v-2.37ZM397.15,80.28h5v2.17h-5v-2.17ZM397.15,85.32h5.61v2.37h-5.61v-2.37Z"/>
        <path class="cls-2" d="M411.46,83.29c0,1.04-.13,1.9-.38,2.58s-.63,1.2-1.12,1.54-1.08.51-1.77.51c-.8,0-1.51-.2-2.13-.61-.62-.4-1.11-.96-1.46-1.67s-.52-1.5-.52-2.37.17-1.67.52-2.37.84-1.26,1.46-1.66c.62-.4,1.33-.61,2.13-.61.69,0,1.29.17,1.77.51s.86.85,1.12,1.54c.26.69.38,1.55.38,2.59l-.87-3.2h1.07v6.4h-1.07l.87-3.2ZM408.72,85.72c.42,0,.8-.1,1.13-.31.34-.21.6-.49.79-.86.19-.37.29-.78.29-1.25s-.09-.89-.29-1.26c-.19-.37-.45-.65-.79-.86-.33-.2-.71-.31-1.13-.31s-.81.1-1.15.31c-.34.2-.6.49-.79.86s-.28.79-.28,1.26.09.88.28,1.25.45.66.79.87c.34.21.72.31,1.15.31ZM413.29,87.69h-2.42v-1.77l.38-2.63-.38-2.34v-5.61h2.42v12.35Z"/>
        <path class="cls-2" d="M418.2,85.19c.29.35.69.52,1.21.52.35,0,.67-.09.96-.26.29-.17.51-.44.67-.8.16-.36.25-.81.25-1.36l.27,1.64v1.46h-.55l.55-1.46c0,.59-.13,1.11-.39,1.57s-.62.81-1.08,1.06-.99.38-1.58.38c-.66,0-1.23-.15-1.7-.46s-.84-.75-1.09-1.32c-.25-.57-.38-1.25-.38-2.04v-5.22h2.42v4.81c0,.64.14,1.14.43,1.49ZM423.71,87.69h-2.42v-8.8h2.42v8.8Z"/>
        <path class="cls-2" d="M427.64,87.32c-.72-.41-1.28-.96-1.69-1.67s-.62-1.49-.62-2.36.21-1.66.62-2.37.98-1.26,1.69-1.67,1.51-.61,2.38-.61c.62,0,1.2.1,1.74.31.54.2,1.01.49,1.41.87.4.38.72.82.95,1.33l-2.15.84c-.18-.36-.43-.64-.77-.83-.34-.2-.73-.29-1.18-.29s-.86.1-1.22.31-.63.49-.84.86c-.2.37-.3.79-.3,1.26s.1.88.3,1.25c.2.37.48.65.84.86s.76.31,1.22.31.84-.1,1.18-.3c.33-.2.59-.47.77-.83l2.15.84c-.23.5-.54.94-.95,1.32-.4.38-.88.67-1.41.88-.54.21-1.12.31-1.74.31-.87,0-1.66-.2-2.38-.61Z"/>
        <path class="cls-2" d="M442.3,85.88c-.26.69-.63,1.2-1.11,1.54s-1.08.51-1.78.51c-.78,0-1.49-.2-2.12-.61-.63-.4-1.12-.96-1.47-1.67s-.53-1.5-.53-2.37.18-1.67.53-2.37.84-1.26,1.47-1.66c.62-.4,1.33-.61,2.12-.61.7,0,1.29.17,1.78.51s.86.85,1.11,1.54c.26.69.38,1.55.38,2.59l-.87-3.2h1.07v6.4h-1.07l.87-3.2c0,1.04-.13,1.9-.38,2.58ZM441.09,85.4c.34-.21.6-.49.79-.86.19-.37.28-.78.28-1.25s-.09-.89-.28-1.26-.45-.65-.79-.86-.72-.31-1.14-.31-.81.1-1.14.31c-.33.2-.59.49-.78.86s-.29.79-.29,1.26.1.88.29,1.25.45.66.78.87c.33.21.71.31,1.14.31s.81-.1,1.14-.31ZM442.09,87.69v-1.77l.38-2.63-.38-2.34v-2.06h2.42v8.8h-2.42Z"/>
        <path class="cls-2" d="M446.08,78.89h5.94v1.89h-5.94v-1.89ZM448.95,87.54c-.46-.26-.81-.64-1.05-1.15-.24-.5-.36-1.11-.36-1.83v-7.86h2.42v7.72c0,.42.09.73.27.92.18.19.47.29.88.29.29,0,.59-.04.9-.13v2.19c-.45.16-.92.24-1.4.24-.65,0-1.21-.13-1.67-.39Z"/>
        <path class="cls-2" d="M454.21,77.41c-.22-.12-.39-.29-.52-.51-.13-.21-.19-.45-.19-.72s.06-.51.19-.73c.13-.22.3-.39.52-.51.22-.12.46-.18.73-.18s.52.06.74.18c.22.12.39.29.52.51.12.22.18.46.18.73s-.06.51-.18.72c-.12.21-.29.38-.52.51-.22.12-.47.19-.74.19s-.51-.06-.73-.19ZM453.72,78.89h2.42v8.8h-2.42v-8.8Z"/>
        <path class="cls-2" d="M460.05,87.33c-.71-.4-1.26-.96-1.67-1.67-.41-.71-.61-1.5-.61-2.36s.2-1.67.61-2.37c.41-.71.96-1.26,1.67-1.66.71-.4,1.5-.61,2.36-.61s1.67.2,2.37.61,1.26.96,1.66,1.66c.4.71.61,1.5.61,2.37s-.2,1.65-.61,2.36c-.4.71-.96,1.27-1.66,1.67s-1.5.61-2.37.61-1.65-.2-2.36-.61ZM463.6,85.4c.35-.21.62-.49.82-.86.19-.37.29-.78.29-1.25s-.1-.89-.29-1.26-.47-.65-.82-.86-.75-.31-1.19-.31-.84.1-1.19.31c-.35.2-.62.49-.82.86s-.3.79-.3,1.26.1.88.3,1.25c.2.37.47.65.82.86.35.21.74.31,1.19.31s.84-.1,1.19-.31Z"/>
        <path class="cls-2" d="M468.67,78.89h2.42v8.8h-2.42v-8.8ZM474.18,81.39c-.29-.35-.69-.52-1.21-.52-.35,0-.67.09-.96.26s-.51.44-.67.8c-.17.36-.25.81-.25,1.36l-.27-1.64v-1.46h.55l-.55,1.46c0-.59.13-1.11.39-1.57s.62-.8,1.08-1.06c.46-.25.99-.38,1.58-.38.66,0,1.23.15,1.7.46.47.31.84.75,1.09,1.32.25.57.38,1.25.38,2.04v5.22h-2.42v-4.81c0-.64-.14-1.14-.43-1.49Z"/>
        <path class="cls-2" d="M487.39,75.34h1.86l-.08,2.8h-1.36l1.83-2.8-4.22,12.35h-2.78l4.75-12.35ZM485.71,82.62h6.03v2.37h-6.03v-2.37ZM487.81,75.34h2.25l4.75,12.35h-2.77l-4.23-12.35Z"/>
        <path class="cls-2" d="M496.27,75.34h2.53v12.35h-2.53v-12.35Z"/>
        <path class="cls-2" d="M505.22,75.34h2.53v12.35h-2.53v-12.35ZM507.71,75.34h5.48v2.37h-5.48v-2.37ZM507.71,80.28h5v2.17h-5v-2.17ZM507.71,85.32h5.61v2.37h-5.61v-2.37Z"/>
        <path class="cls-2" d="M522.03,83.29c0,1.04-.13,1.9-.38,2.58s-.63,1.2-1.12,1.54-1.08.51-1.77.51c-.8,0-1.51-.2-2.13-.61-.62-.4-1.11-.96-1.46-1.67s-.52-1.5-.52-2.37.17-1.67.52-2.37.84-1.26,1.46-1.66c.62-.4,1.33-.61,2.13-.61.69,0,1.29.17,1.77.51s.86.85,1.12,1.54c.26.69.38,1.55.38,2.59l-.87-3.2h1.07v6.4h-1.07l.87-3.2ZM519.29,85.72c.42,0,.8-.1,1.13-.31.34-.21.6-.49.79-.86.19-.37.29-.78.29-1.25s-.09-.89-.29-1.26c-.19-.37-.45-.65-.79-.86-.33-.2-.71-.31-1.13-.31s-.81.1-1.15.31c-.34.2-.6.49-.79.86s-.28.79-.28,1.26.09.88.28,1.25.45.66.79.87c.34.21.72.31,1.15.31ZM523.85,87.69h-2.42v-1.77l.38-2.63-.38-2.34v-5.61h2.42v12.35Z"/>
        <path class="cls-2" d="M528.77,85.19c.29.35.69.52,1.21.52.35,0,.67-.09.96-.26.29-.17.51-.44.67-.8.16-.36.25-.81.25-1.36l.27,1.64v1.46h-.55l.55-1.46c0,.59-.13,1.11-.39,1.57s-.62.81-1.08,1.06-.99.38-1.58.38c-.66,0-1.23-.15-1.7-.46s-.84-.75-1.09-1.32c-.25-.57-.38-1.25-.38-2.04v-5.22h2.42v4.81c0,.64.14,1.14.43,1.49ZM534.28,87.69h-2.42v-8.8h2.42v8.8Z"/>
        <path class="cls-2" d="M538.21,87.32c-.72-.41-1.28-.96-1.69-1.67s-.62-1.49-.62-2.36.21-1.66.62-2.37.98-1.26,1.69-1.67,1.51-.61,2.38-.61c.62,0,1.2.1,1.74.31.54.2,1.01.49,1.41.87.4.38.72.82.95,1.33l-2.15.84c-.18-.36-.43-.64-.77-.83-.34-.2-.73-.29-1.18-.29s-.86.1-1.22.31-.63.49-.84.86c-.2.37-.3.79-.3,1.26s.1.88.3,1.25c.2.37.48.65.84.86s.76.31,1.22.31.84-.1,1.18-.3c.33-.2.59-.47.77-.83l2.15.84c-.23.5-.54.94-.95,1.32-.4.38-.88.67-1.41.88-.54.21-1.12.31-1.74.31-.87,0-1.66-.2-2.38-.61Z"/>
        <path class="cls-2" d="M552.87,85.88c-.26.69-.63,1.2-1.11,1.54s-1.08.51-1.78.51c-.78,0-1.49-.2-2.12-.61-.63-.4-1.12-.96-1.47-1.67s-.53-1.5-.53-2.37.18-1.67.53-2.37.84-1.26,1.47-1.66c.62-.4,1.33-.61,2.12-.61.7,0,1.29.17,1.78.51s.86.85,1.11,1.54c.26.69.38,1.55.38,2.59l-.87-3.2h1.07v6.4h-1.07l.87-3.2c0,1.04-.13,1.9-.38,2.58ZM551.66,85.4c.34-.21.6-.49.79-.86.19-.37.28-.78.28-1.25s-.09-.89-.28-1.26-.45-.65-.79-.86-.72-.31-1.14-.31-.81.1-1.14.31c-.33.2-.59.49-.78.86s-.29.79-.29,1.26.1.88.29,1.25.45.66.78.87c.33.21.71.31,1.14.31s.81-.1,1.14-.31ZM552.65,87.69v-1.77l.38-2.63-.38-2.34v-2.06h2.42v8.8h-2.42Z"/>
        <path class="cls-2" d="M556.65,78.89h5.94v1.89h-5.94v-1.89ZM559.52,87.54c-.46-.26-.81-.64-1.05-1.15-.24-.5-.36-1.11-.36-1.83v-7.86h2.42v7.72c0,.42.09.73.27.92.18.19.47.29.88.29.29,0,.59-.04.9-.13v2.19c-.45.16-.92.24-1.4.24-.65,0-1.21-.13-1.67-.39Z"/>
        <path class="cls-2" d="M564.77,77.41c-.22-.12-.39-.29-.52-.51-.13-.21-.19-.45-.19-.72s.06-.51.19-.73c.13-.22.3-.39.52-.51.22-.12.46-.18.73-.18s.52.06.74.18c.22.12.39.29.52.51.12.22.18.46.18.73s-.06.51-.18.72c-.12.21-.29.38-.52.51-.22.12-.47.19-.74.19s-.51-.06-.73-.19ZM564.29,78.89h2.42v8.8h-2.42v-8.8Z"/>
        <path class="cls-2" d="M570.62,87.33c-.71-.4-1.26-.96-1.67-1.67-.41-.71-.61-1.5-.61-2.36s.2-1.67.61-2.37c.41-.71.96-1.26,1.67-1.66.71-.4,1.5-.61,2.36-.61s1.67.2,2.37.61,1.26.96,1.66,1.66c.4.71.61,1.5.61,2.37s-.2,1.65-.61,2.36c-.4.71-.96,1.27-1.66,1.67s-1.5.61-2.37.61-1.65-.2-2.36-.61ZM574.17,85.4c.35-.21.62-.49.82-.86.19-.37.29-.78.29-1.25s-.1-.89-.29-1.26-.47-.65-.82-.86-.75-.31-1.19-.31-.84.1-1.19.31c-.35.2-.62.49-.82.86s-.3.79-.3,1.26.1.88.3,1.25c.2.37.47.65.82.86.35.21.74.31,1.19.31s.84-.1,1.19-.31Z"/>
        <path class="cls-2" d="M579.24,78.89h2.42v8.8h-2.42v-8.8ZM584.74,81.39c-.29-.35-.69-.52-1.21-.52-.35,0-.67.09-.96.26s-.51.44-.67.8c-.17.36-.25.81-.25,1.36l-.27-1.64v-1.46h.55l-.55,1.46c0-.59.13-1.11.39-1.57s.62-.8,1.08-1.06c.46-.25.99-.38,1.58-.38.66,0,1.23.15,1.7.46.47.31.84.75,1.09,1.32.25.57.38,1.25.38,2.04v5.22h-2.42v-4.81c0-.64-.14-1.14-.43-1.49Z"/>
        <path class="cls-2" d="M596.63,87.08c-.96-.57-1.72-1.34-2.28-2.32-.55-.98-.83-2.06-.83-3.25s.28-2.28.83-3.26c.55-.98,1.31-1.75,2.28-2.31.96-.56,2.03-.84,3.19-.84.75,0,1.46.12,2.14.35.67.23,1.28.57,1.82,1.01.54.44.99.96,1.35,1.55l-2.21,1.17c-.34-.53-.78-.95-1.32-1.25-.54-.3-1.13-.44-1.78-.44-.7,0-1.34.18-1.91.53-.57.35-1.03.84-1.36,1.45-.33.61-.49,1.3-.49,2.05s.17,1.42.49,2.04c.33.61.78,1.1,1.36,1.45.58.36,1.21.53,1.91.53.65,0,1.24-.15,1.78-.45.54-.3.98-.71,1.32-1.24l2.21,1.17c-.36.59-.82,1.1-1.35,1.54s-1.14.77-1.82,1.01c-.67.24-1.39.36-2.14.36-1.17,0-2.23-.28-3.19-.85Z"/>
        <path class="cls-2" d="M608.6,87.34c-.72-.4-1.29-.95-1.69-1.66-.4-.71-.61-1.5-.61-2.38s.2-1.69.6-2.4c.4-.71.95-1.26,1.65-1.65.7-.4,1.49-.59,2.37-.59s1.65.2,2.33.59c.68.4,1.21.95,1.59,1.65.38.71.57,1.5.57,2.4,0,.24-.02.5-.06.78h-7.63v-1.85h5.35l-.13.26c0-.35-.08-.67-.25-.95-.17-.28-.41-.5-.71-.67-.31-.16-.66-.24-1.06-.24-.42,0-.8.1-1.14.29-.34.19-.6.46-.79.8-.19.34-.29.74-.29,1.19v.69c0,.46.1.87.31,1.22.2.36.49.63.85.83.36.2.77.3,1.22.3s.84-.1,1.16-.29.56-.46.73-.8l2.11.78c-.36.72-.88,1.28-1.57,1.69s-1.5.61-2.44.61-1.76-.2-2.48-.6Z"/>
        <path class="cls-2" d="M617.04,78.89h2.42v8.8h-2.42v-8.8ZM622.54,81.39c-.29-.35-.69-.52-1.21-.52-.35,0-.67.09-.96.26s-.51.44-.67.8c-.17.36-.25.81-.25,1.36l-.27-1.64v-1.46h.55l-.55,1.46c0-.59.13-1.11.39-1.57s.62-.8,1.08-1.06c.46-.25.99-.38,1.58-.38.66,0,1.23.15,1.7.46.47.31.84.75,1.09,1.32.25.57.38,1.25.38,2.04v5.22h-2.42v-4.81c0-.64-.14-1.14-.43-1.49Z"/>
        <path class="cls-2" d="M626.56,78.89h5.94v1.89h-5.94v-1.89ZM629.43,87.54c-.46-.26-.81-.64-1.05-1.15-.24-.5-.36-1.11-.36-1.83v-7.86h2.42v7.72c0,.42.09.73.27.92.18.19.47.29.88.29.29,0,.59-.04.9-.13v2.19c-.45.16-.92.24-1.4.24-.65,0-1.21-.13-1.67-.39Z"/>
        <path class="cls-2" d="M635.98,87.34c-.72-.4-1.29-.95-1.69-1.66-.4-.71-.61-1.5-.61-2.38s.2-1.69.6-2.4c.4-.71.95-1.26,1.65-1.65.7-.4,1.49-.59,2.37-.59s1.65.2,2.33.59c.68.4,1.21.95,1.59,1.65.38.71.57,1.5.57,2.4,0,.24-.02.5-.06.78h-7.63v-1.85h5.35l-.13.26c0-.35-.08-.67-.25-.95-.17-.28-.41-.5-.71-.67-.31-.16-.66-.24-1.06-.24-.42,0-.8.1-1.14.29-.34.19-.6.46-.79.8-.19.34-.29.74-.29,1.19v.69c0,.46.1.87.31,1.22.2.36.49.63.85.83.36.2.77.3,1.22.3s.84-.1,1.16-.29.56-.46.73-.8l2.11.78c-.36.72-.88,1.28-1.57,1.69s-1.5.61-2.44.61-1.76-.2-2.48-.6Z"/>
        <path class="cls-2" d="M644.42,78.89h2.42v8.8h-2.42v-8.8ZM646.5,82v-1.83h.61l-.61,1.83c0-.64.12-1.21.35-1.72.24-.51.56-.91.97-1.2s.87-.43,1.39-.43c.28,0,.56.05.84.15v2.3c-.35-.1-.69-.15-1.04-.15-.47,0-.86.11-1.19.32s-.57.52-.74.94c-.17.42-.25.92-.25,1.52l-.34-1.71Z"/>
      </g>
      <g>
        <path class="cls-1" d="M30.01,36.52c1.97-.61,4.06-.94,6.23-.94.57,0,1.13.03,1.68.07.14.01.29.02.43.04.5.05,1,.12,1.49.2.03,0,.05,0,.08.01.03,0,.05,0,.08.01.27.05.53.12.79.18.26.06.53.11.79.18.07.02.13.04.2.06.07.02.13.04.2.06.22.06.44.14.66.21.22.07.44.13.66.21.08.03.16.05.24.08.49.18.98.39,1.45.61.12.06.24.12.36.17.2.09.38.2.58.3.19.1.39.2.58.3.1.05.19.11.29.16.44.26.88.54,1.3.83.06.04.11.08.16.12s.11.08.16.12c.34.24.66.49.98.75.35.28.69.58,1.02.88.99.91,1.9,1.92,2.7,3.01,1.62-5.29,4.26-10.15,7.69-14.33-2.37-2.17-5.02-4.03-7.91-5.52-1.73-.89-3.54-1.65-5.41-2.26,0,0-.01,0-.02,0,0,0-.01,0-.02,0-1.22-.39-2.46-.73-3.73-.99-.12-.02-.23-.05-.35-.08-.28-.05-.55-.1-.83-.15-.25-.04-.51-.09-.76-.13-.12-.02-.25-.03-.37-.05-.12-.02-.25-.04-.37-.05-.15-.02-.3-.04-.45-.05-.15-.02-.3-.04-.45-.05-.22-.02-.45-.05-.68-.07-.35-.03-.7-.05-1.05-.08-.18-.01-.37-.02-.55-.03-.54-.02-1.08-.04-1.63-.04h0c-3.76,0-7.38.57-10.78,1.63"/>
        <g>
          <g>
            <g>
              <path class="cls-1" d="M121.18,22.97c-3.11,0-5.97-1.03-8.29-2.76v20.84l16.58,19.48V20.21c-2.32,1.73-5.18,2.76-8.29,2.76Z"/>
              <circle class="cls-4" cx="121.21" cy="9.07" r="9.07"/>
            </g>
            <path class="cls-1" d="M93.3,36.05c.2,0,.39,0,.58.01v-15.84l-.58-.02c-18.53,0-33.85,13.98-36,31.93,0,.04,0,.08-.01.12h-19.62v13.17h16.01c-.36,1.37-.86,2.66-1.52,3.86-1.43,2.6-3.47,4.62-6.12,6.05-2.65,1.43-5.75,2.15-9.28,2.15-.36,0-.72-.02-1.08-.03,0,0,.01,0,.02,0v15.29c.35,0,.7.03,1.06.03,6.37,0,12.1-1.36,17.19-4.08,1.43-.76,2.76-1.62,4.02-2.55v6.64h14.86v-6.42c5.83,4.01,12.88,6.37,20.48,6.37.2,0,.38,0,.58-.01v-15.85c-.19.01-.38.01-.58.01-11.26,0-20.41-9.15-20.41-20.41s9.15-20.41,20.41-20.41Z"/>
            <path class="cls-6" d="M35.69,92.74h0s-.03,0-.04,0c.01,0,.03,0,.04,0Z"/>
          </g>
          <path class="cls-5" d="M35.67,77.45c-.39-.02-.77-.05-1.15-.08-.07,0-.13-.01-.2-.02-.35-.04-.69-.08-1.04-.13-.1-.01-.19-.03-.29-.04-.31-.05-.63-.11-.93-.17-.13-.03-.25-.05-.38-.08-.28-.06-.56-.13-.83-.21-.16-.04-.31-.09-.46-.14-.24-.07-.49-.15-.73-.23-.19-.06-.37-.14-.56-.21-.21-.08-.41-.15-.62-.24-.23-.1-.46-.2-.69-.31-.15-.07-.31-.14-.46-.21-.36-.18-.72-.37-1.08-.58-.02,0-.03-.02-.05-.03-.73-.42-1.41-.88-2.06-1.38-.04-.03-.09-.06-.14-.1-.08-.06-.15-.12-.22-.18-1.97-1.58-3.59-3.51-4.86-5.81-.9-1.63-1.56-3.37-2-5.22-.42-1.76-.63-3.62-.63-5.58,0-2.23.27-4.32.78-6.28.43-1.63,1.03-3.18,1.82-4.62.06-.11.13-.21.19-.32,1.72-3.03,4.07-5.4,7.05-7.11.1-.06.21-.11.31-.16.27-.15.53-.29.8-.42.2-.1.4-.18.61-.27.18-.08.36-.16.54-.24.24-.1.49-.19.74-.28.14-.05.28-.11.43-.16.28-.09.57-.18.85-.26.11-.03.22-.07.33-.1.32-.09.64-.16.96-.23.08-.02.16-.04.25-.05.35-.07.71-.14,1.07-.19.05,0,.11-.02.16-.02.38-.06.77-.1,1.17-.14.03,0,.05,0,.08,0,.42-.04.84-.07,1.26-.08v-15.29c-2.41.05-4.73.3-6.99.75-.04,0-.07.02-.11.02-.71.14-1.41.31-2.1.49-.1.03-.2.06-.3.09-.63.17-1.26.36-1.87.56-.18.06-.36.13-.54.2-.53.19-1.06.38-1.59.59-.3.12-.59.26-.88.39-.41.18-.82.35-1.22.54-.53.25-1.04.53-1.56.81-.17.09-.33.17-.5.26-5.59,3.15-10,7.49-13.21,13.02C1.61,43.51,0,49.68,0,56.5c0,1.69.1,3.34.3,4.95.44,3.51,1.37,6.84,2.77,9.99.52,1.18,1.1,2.35,1.76,3.48.4.69.82,1.36,1.26,2.02,3.07,4.58,7.07,8.27,11.98,11.05.68.39,1.37.75,2.07,1.09.32.16.65.29.98.44.37.17.75.34,1.12.5.46.19.94.36,1.41.53.24.09.48.18.73.26.56.19,1.14.36,1.71.52.15.04.31.09.46.13.64.17,1.29.32,1.95.46.09.02.17.04.26.06.7.14,1.41.26,2.13.37.04,0,.09.01.13.02.74.1,1.5.19,2.26.25.02,0,.04,0,.06,0,.77.06,1.54.1,2.33.12.01,0,.03,0,.04,0v-15.29s-.01,0-.02,0Z"/>
        </g>
        <path class="cls-3" d="M129.48,92.72v-38.08c-.6-12.07-7.1-22.59-16.69-28.73-.13-.08-.27-.17-.39-.25-.5-.31-1.01-.61-1.53-.9-.25-.14-.49-.26-.74-.39-.51-.27-1.03-.53-1.56-.77-.27-.12-.53-.25-.8-.36-.53-.23-1.08-.46-1.62-.66-.28-.1-.55-.2-.83-.3-.83-.29-1.67-.55-2.52-.79-.57-.16-1.15-.29-1.73-.43-1.16-.25-2.35-.45-3.54-.59-.3-.03-.6-.06-.9-.09-.91-.08-1.83-.14-2.75-.15v15.84c3.09.08,6.01.86,8.61,2.2.29.13.58.29.86.46.28.16.55.31.82.49,0,0,0,.01.01.01.82.51,1.6,1.08,2.32,1.71.27.24.54.48.81.72.21.2.4.39.6.6.54.56,1.05,1.14,1.53,1.76.17.21.32.42.48.63,1.08,1.5,1.95,3.17,2.58,4.93.78,2.15,1.2,4.47,1.2,6.89,0,.22,0,.44-.01.64-.12,4.12-1.47,7.93-3.7,11.07-.17.26-.35.51-.55.75-.02.03-.03.05-.05.07-.17.22-.33.43-.52.63-.75.88-1.57,1.7-2.46,2.45-.21.19-.43.36-.65.53-.25.21-.51.39-.78.57-.25.19-.51.36-.77.52l-.93.56c-.26.15-.52.29-.79.42-.29.16-.57.29-.87.42-.29.15-.58.27-.88.37-.02,0-.04.01-.05.02-.29.12-.59.23-.89.32-.31.11-.62.21-.94.29-.32.1-.64.19-.97.25-.64.16-1.31.28-1.97.35-.33.05-.66.08-1.01.1-.34.04-.69.05-1.03.06v15.85c.55-.01,1.1-.03,1.65-.06.15-.01.3-.02.45-.03.37-.02.75-.05,1.11-.1h.09c.42-.04.82-.09,1.22-.16.31-.04.61-.09.91-.15.27-.04.53-.09.8-.14.43-.08.84-.18,1.26-.27.48-.1.95-.23,1.43-.35.85-.24,1.69-.5,2.52-.79.28-.1.55-.2.83-.3.54-.21,1.09-.44,1.62-.66.27-.11.53-.24.8-.36.53-.24,1.05-.5,1.56-.77.25-.14.49-.26.74-.39.52-.29,1.03-.59,1.53-.9.45-.28.88-.58,1.32-.88v6.33h15.77Z"/>
      </g>
    </g>
  </g>
</svg>